# xmcd
#
# Track frame offsets: 
#        150
#        9184
#        23574
#        35994
#        52267
#        63678
#        75183
#        86367
#        99803
#        115909
#        129861
#        140830
#        152593
#        165590
#        177257
#        187963
#        200272
#        213522
#        227547
#        240081
#        254305
#        265212
#        277392
#        291122
#        302515
#        315274
#        326232
#        341061
#
# Disc length: 4720 seconds
#
# Revision: 1
# Processed by: cddbd v1.5.2PL0 Copyright (c) Steve Scherf et al.
# Submitted via: ExactAudioCopy v1.3
#
DISCID=7c126e1c
DTITLE=B.B. King - Akella Presents - Greatest Bluesmen - vol. 11  CD1
DYEAR=2017
DGENRE=Blues
TTITLE0=My Baby's Gone
TTITLE1=B.B. Boogie
TTITLE2=Mistreated Woman
TTITLE3=The Other Night Blues
TTITLE4=She's Dynamite
TTITLE5=She's A Mean Woman
TTITLE6=B.B. Blues
TTITLE7=Story From My Heat And Soul
TTITLE8=My Own Fault, Darling
TTITLE9=She Don't Move Me No More
TTITLE10=Gotta Find My Baby
TTITLE11=Shake It Up And Go
TTITLE12=Someday, Somewhere
TTITLE13=You Didn't Want Me
TTITLE14=Fine Looking Woman
TTITLE15=Please Hurry Home
TTITLE16=Neighbourhood Affair
TTITLE17=Why Did You Leave Me
TTITLE18=Highway Bound
TTITLE19=Whole Lotta Love
TTITLE20=Love You Baby
TTITLE21=The Woman I Love
TTITLE22=Sneakin' Around
TTITLE23=Bye Bye Baby
TTITLE24=Praying To The Lord
TTITLE25=Everything I Do Is Wrong
TTITLE26=Please Help Me
TTITLE27=Walkin' And Cryin'
EXTD=
EXTT0=
EXTT1=
EXTT2=
EXTT3=
EXTT4=
EXTT5=
EXTT6=
EXTT7=
EXTT8=
EXTT9=
EXTT10=
EXTT11=
EXTT12=
EXTT13=
EXTT14=
EXTT15=
EXTT16=
EXTT17=
EXTT18=
EXTT19=
EXTT20=
EXTT21=
EXTT22=
EXTT23=
EXTT24=
EXTT25=
EXTT26=
EXTT27=
PLAYORDER=
